<svg xmlns="http://www.w3.org/2000/svg" xmlns:xlink="http://www.w3.org/1999/xlink" xml:space="preserve" width="360" height="360"><defs><linearGradient id="a"><stop offset="0" style="stop-color:#eff4fa;stop-opacity:1"/><stop offset=".76" style="stop-color:#9fe9f6;stop-opacity:1"/><stop offset="1" style="stop-color:#90d3f0;stop-opacity:1"/></linearGradient><linearGradient id="c" x1="17.134" x2="17.134" y1="8.946" y2="9.703" gradientUnits="userSpaceOnUse"><stop stop-color="#3f6928"/><stop offset="1" stop-color="#3f6928" stop-opacity="0"/></linearGradient><linearGradient id="d" x1="12.969" x2="13.198" y1="16.309" y2="15.721" gradientUnits="userSpaceOnUse"><stop stop-color="#4a5b3b"/><stop offset="1" stop-color="#4a5b3b" stop-opacity="0"/></linearGradient><linearGradient id="e" x1="13.826" x2="14.104" y1="11.457" y2="10.69" gradientUnits="userSpaceOnUse"><stop stop-color="#4a5b3b"/><stop offset="1" stop-color="#4a5b3b" stop-opacity="0"/></linearGradient><linearGradient id="g" x1="17.393" x2="17.273" y1="17.445" y2="17.076" gradientUnits="userSpaceOnUse"><stop stop-color="#4a5b3b"/><stop offset="1" stop-color="#4a5b3b" stop-opacity="0"/></linearGradient><linearGradient id="h" x1="18.807" x2="18.628" y1="11.636" y2="11.271" gradientUnits="userSpaceOnUse"><stop stop-color="#4a5b3b"/><stop offset="1" stop-color="#4a5b3b" stop-opacity="0"/></linearGradient><linearGradient id="i" x1="19.076" x2="18.349" y1="11.148" y2="11.346" gradientUnits="userSpaceOnUse"><stop stop-color="#4a5b3b"/><stop offset="1" stop-color="#4a5b3b" stop-opacity="0"/></linearGradient><linearGradient id="k" x1="15.133" x2="17.836" y1="10.898" y2="11.828" gradientUnits="userSpaceOnUse"><stop stop-color="#608246"/><stop offset="1" stop-color="#608246" stop-opacity="0"/></linearGradient><linearGradient id="m" x1="13.716" x2="18.05" y1="15.726" y2="16.907" gradientUnits="userSpaceOnUse"><stop stop-color="#648746"/><stop offset="1" stop-color="#648746" stop-opacity="0"/></linearGradient><linearGradient id="o" x1="17.982" x2="13.647" y1="16.616" y2="17.797" gradientUnits="userSpaceOnUse"><stop stop-color="#648746"/><stop offset="1" stop-color="#648746" stop-opacity="0"/></linearGradient><linearGradient id="q" x1="19.337" x2="15.003" y1="10.757" y2="11.937" gradientUnits="userSpaceOnUse"><stop stop-color="#648746"/><stop offset="1" stop-color="#648746" stop-opacity="0"/></linearGradient><linearGradient id="s" x1="17.237" x2="17.237" y1="10.766" y2="19.236" gradientUnits="userSpaceOnUse"><stop stop-color="#608246"/><stop offset="1" stop-color="#728c5b"/></linearGradient><linearGradient id="w" x1="17.558" x2="17.558" y1="2.667" y2="8.692" gradientUnits="userSpaceOnUse"><stop stop-color="#9cd740"/><stop offset="1" stop-color="#9cd740" stop-opacity="0"/></linearGradient><linearGradient id="I" x1="8.469" x2="13.031" y1="27.281" y2="26.996" gradientUnits="userSpaceOnUse"><stop stop-color="#b17a60"/><stop offset="1" stop-color="#b17a60" stop-opacity="0"/></linearGradient><linearGradient id="J" x1="16.007" x2="16.007" y1="28.688" y2="30.313" gradientUnits="userSpaceOnUse"><stop offset=".011" stop-color="#d37082" stop-opacity="0"/><stop offset="1" stop-color="#d37082"/></linearGradient><linearGradient id="K" x1="16.007" x2="16.007" y1="23.924" y2="24.489" gradientUnits="userSpaceOnUse"><stop stop-color="#c87156"/><stop offset="1" stop-color="#c87156" stop-opacity="0"/></linearGradient><linearGradient id="M" x1="7.5" x2="17" y1="23.996" y2="23.996" gradientUnits="userSpaceOnUse"><stop stop-color="#ae7f61"/><stop offset="1" stop-color="#ae7f61" stop-opacity="0"/></linearGradient><linearGradient id="N" x1="16.007" x2="16.007" y1="23.547" y2="23.996" gradientUnits="userSpaceOnUse"><stop stop-color="#d1556c" stop-opacity="0"/><stop offset="1" stop-color="#d37082"/><stop offset="1" stop-color="#d1556c"/></linearGradient><linearGradient id="O" x1="16.007" x2="16.007" y1="19.675" y2="20.317" gradientUnits="userSpaceOnUse"><stop stop-color="#e6ab68"/><stop offset="1" stop-color="#e6ab68" stop-opacity="0"/></linearGradient><linearGradient id="Q" x1="24.132" x2="11.583" y1="20.39" y2="20.39" gradientUnits="userSpaceOnUse"><stop stop-color="#fcd08f" stop-opacity="0"/><stop offset=".287" stop-color="#ffcd91"/><stop offset=".795" stop-color="#fcd08f" stop-opacity="0"/></linearGradient><linearGradient id="S" x1="18.325" x2="18.325" y1="2.533" y2="9.577" gradientUnits="userSpaceOnUse"><stop stop-color="#b9ee6e"/><stop offset="1" stop-color="#b9ee6e" stop-opacity="0"/></linearGradient><radialGradient id="f" cx="0" cy="0" r="1" gradientTransform="matrix(-1.1639 .3497 -.53787 -1.7902 18.297 16.947)" gradientUnits="userSpaceOnUse"><stop stop-color="#4a5b3b"/><stop offset="1" stop-color="#4a5b3b" stop-opacity="0"/></radialGradient><radialGradient id="t" cx="0" cy="0" r="1" gradientTransform="matrix(0 -2.3759 9.50361 0 14.6 20.22)" gradientUnits="userSpaceOnUse"><stop stop-color="#774336"/><stop offset="1" stop-color="#714f4a"/></radialGradient><radialGradient id="u" cx="0" cy="0" r="1" gradientTransform="matrix(-2.45976 0 0 -6.95372 18.654 5.68)" gradientUnits="userSpaceOnUse"><stop stop-color="#a5d949"/><stop offset="1" stop-color="#80b93f"/></radialGradient><radialGradient id="y" cx="0" cy="0" r="1" gradientTransform="matrix(-8.68504 -4.84376 1.77752 -3.18716 13.994 13.79)" gradientUnits="userSpaceOnUse"><stop stop-color="#aae057"/><stop offset="1" stop-color="#aae057" stop-opacity="0"/></radialGradient><radialGradient id="A" cx="0" cy="0" r="1" gradientTransform="matrix(-8.6875 -4.84375 1.77725 -3.1876 15.469 9)" gradientUnits="userSpaceOnUse"><stop stop-color="#aae057"/><stop offset="1" stop-color="#aae057" stop-opacity="0"/></radialGradient><radialGradient id="C" cx="0" cy="0" r="1" gradientTransform="matrix(-6.12303 5.28806 -2.33641 -2.70533 24.008 11.838)" gradientUnits="userSpaceOnUse"><stop stop-color="#aae057"/><stop offset="1" stop-color="#aae057" stop-opacity="0"/></radialGradient><radialGradient id="D" cx="0" cy="0" r="1" gradientTransform="matrix(-1.24899 1.88738 -.4373 -.2894 24.195 11.251)" gradientUnits="userSpaceOnUse"><stop stop-color="#ace461"/><stop offset="1" stop-color="#ace461" stop-opacity="0"/></radialGradient><radialGradient id="F" cx="0" cy="0" r="1" gradientTransform="matrix(-6.12303 5.28806 -2.33641 -2.70533 24.828 6.199)" gradientUnits="userSpaceOnUse"><stop stop-color="#aae057"/><stop offset="1" stop-color="#aae057" stop-opacity="0"/></radialGradient><radialGradient id="G" cx="0" cy="0" r="1" gradientTransform="matrix(-1.24899 1.88738 -.4373 -.2894 25.015 5.612)" gradientUnits="userSpaceOnUse"><stop stop-color="#ace461"/><stop offset="1" stop-color="#ace461" stop-opacity="0"/></radialGradient><radialGradient id="H" cx="0" cy="0" r="1" gradientTransform="matrix(-6.18755 -5.12861 4.97996 -6.0082 21.25 29.126)" gradientUnits="userSpaceOnUse"><stop offset=".171" stop-color="#ffbb7a"/><stop offset="1" stop-color="#cf7d5b"/></radialGradient><radialGradient id="L" cx="0" cy="0" r="1" gradientTransform="matrix(-5.24257 -5.68749 4.40502 -4.06042 21.25 23.063)" gradientUnits="userSpaceOnUse"><stop offset=".313" stop-color="#ffbd80"/><stop offset="1" stop-color="#e09369"/></radialGradient><radialGradient id="U" cx="0" cy="0" r="1" gradientTransform="matrix(-.5625 .64062 -114.12824 -100.21118 13.36 8.016)" gradientUnits="userSpaceOnUse"><stop stop-color="#b3e468"/><stop offset="1" stop-color="#b3e468" stop-opacity="0"/></radialGradient><radialGradient id="W" cx="0" cy="0" r="1" gradientTransform="matrix(-.5625 .64062 -114.12824 -100.21118 11.96 13.016)" gradientUnits="userSpaceOnUse"><stop stop-color="#b3e468"/><stop offset="1" stop-color="#b3e468" stop-opacity="0"/></radialGradient><radialGradient xlink:href="#a" id="b" cx="2417.686" cy="351.564" r="180" fx="2417.686" fy="351.564" gradientTransform="matrix(.94444 0 0 .94444 1396.63 -152.033)" gradientUnits="userSpaceOnUse"/><filter id="j" width="3.461" height="1.563" x="14.226" y="10.391" color-interpolation-filters="sRGB" filterUnits="userSpaceOnUse"><feFlood flood-opacity="0" result="BackgroundImageFix"/><feBlend in="SourceGraphic" in2="BackgroundImageFix" result="shape"/><feGaussianBlur result="effect1_foregroundBlur_28327_7581" stdDeviation=".125"/></filter><filter id="l" width="3.461" height="1.563" x="12.809" y="15.219" color-interpolation-filters="sRGB" filterUnits="userSpaceOnUse"><feFlood flood-opacity="0" result="BackgroundImageFix"/><feBlend in="SourceGraphic" in2="BackgroundImageFix" result="shape"/><feGaussianBlur result="effect1_foregroundBlur_28327_7581" stdDeviation=".125"/></filter><filter id="n" width="3.461" height="1.563" x="15.427" y="16.109" color-interpolation-filters="sRGB" filterUnits="userSpaceOnUse"><feFlood flood-opacity="0" result="BackgroundImageFix"/><feBlend in="SourceGraphic" in2="BackgroundImageFix" result="shape"/><feGaussianBlur result="effect1_foregroundBlur_28327_7581" stdDeviation=".125"/></filter><filter id="p" width="3.461" height="1.563" x="16.782" y="10.249" color-interpolation-filters="sRGB" filterUnits="userSpaceOnUse"><feFlood flood-opacity="0" result="BackgroundImageFix"/><feBlend in="SourceGraphic" in2="BackgroundImageFix" result="shape"/><feGaussianBlur result="effect1_foregroundBlur_28327_7581" stdDeviation=".125"/></filter><filter id="r" width="2.287" height="10.156" x="15.645" y="8.611" color-interpolation-filters="sRGB" filterUnits="userSpaceOnUse"><feFlood flood-opacity="0" result="BackgroundImageFix"/><feBlend in="SourceGraphic" in2="BackgroundImageFix" result="shape"/><feGaussianBlur result="effect1_foregroundBlur_28327_7581" stdDeviation=".125"/></filter><filter id="v" width="4.296" height="8.025" x="15.409" y="1.667" color-interpolation-filters="sRGB" filterUnits="userSpaceOnUse"><feFlood flood-opacity="0" result="BackgroundImageFix"/><feBlend in="SourceGraphic" in2="BackgroundImageFix" result="shape"/><feGaussianBlur result="effect1_foregroundBlur_28327_7581" stdDeviation=".5"/></filter><filter id="x" width="6.309" height="5.568" x="7" y="10.538" color-interpolation-filters="sRGB" filterUnits="userSpaceOnUse"><feFlood flood-opacity="0" result="BackgroundImageFix"/><feBlend in="SourceGraphic" in2="BackgroundImageFix" result="shape"/><feColorMatrix in="SourceAlpha" result="hardAlpha" values="0 0 0 0 0 0 0 0 0 0 0 0 0 0 0 0 0 0 127 0"/><feOffset/><feGaussianBlur stdDeviation=".125"/><feComposite in2="hardAlpha" k2="-1" k3="1" operator="arithmetic"/><feColorMatrix values="0 0 0 0 0.713726 0 0 0 0 0.784314 0 0 0 0 0.647059 0 0 0 1 0"/><feBlend in2="shape" result="effect1_innerShadow_28327_7581"/></filter><filter id="z" width="6.311" height="5.567" x="8.474" y="5.748" color-interpolation-filters="sRGB" filterUnits="userSpaceOnUse"><feFlood flood-opacity="0" result="BackgroundImageFix"/><feBlend in="SourceGraphic" in2="BackgroundImageFix" result="shape"/><feColorMatrix in="SourceAlpha" result="hardAlpha" values="0 0 0 0 0 0 0 0 0 0 0 0 0 0 0 0 0 0 127 0"/><feOffset/><feGaussianBlur stdDeviation=".125"/><feComposite in2="hardAlpha" k2="-1" k3="1" operator="arithmetic"/><feColorMatrix values="0 0 0 0 0.713726 0 0 0 0 0.784314 0 0 0 0 0.647059 0 0 0 1 0"/><feBlend in2="shape" result="effect1_innerShadow_28327_7581"/></filter><filter id="B" width="6.309" height="5.568" x="17.886" y="11.498" color-interpolation-filters="sRGB" filterUnits="userSpaceOnUse"><feFlood flood-opacity="0" result="BackgroundImageFix"/><feBlend in="SourceGraphic" in2="BackgroundImageFix" result="shape"/><feColorMatrix in="SourceAlpha" result="hardAlpha" values="0 0 0 0 0 0 0 0 0 0 0 0 0 0 0 0 0 0 127 0"/><feOffset/><feGaussianBlur stdDeviation=".125"/><feComposite in2="hardAlpha" k2="-1" k3="1" operator="arithmetic"/><feColorMatrix values="0 0 0 0 0.713726 0 0 0 0 0.784314 0 0 0 0 0.647059 0 0 0 1 0"/><feBlend in2="shape" result="effect1_innerShadow_28327_7581"/></filter><filter id="E" width="6.309" height="5.568" x="18.706" y="5.858" color-interpolation-filters="sRGB" filterUnits="userSpaceOnUse"><feFlood flood-opacity="0" result="BackgroundImageFix"/><feBlend in="SourceGraphic" in2="BackgroundImageFix" result="shape"/><feColorMatrix in="SourceAlpha" result="hardAlpha" values="0 0 0 0 0 0 0 0 0 0 0 0 0 0 0 0 0 0 127 0"/><feOffset/><feGaussianBlur stdDeviation=".125"/><feComposite in2="hardAlpha" k2="-1" k3="1" operator="arithmetic"/><feColorMatrix values="0 0 0 0 0.713726 0 0 0 0 0.784314 0 0 0 0 0.647059 0 0 0 1 0"/><feBlend in2="shape" result="effect1_innerShadow_28327_7581"/></filter><filter id="P" width="13.411" height="1" x="10.552" y="19.972" color-interpolation-filters="sRGB" filterUnits="userSpaceOnUse"><feFlood flood-opacity="0" result="BackgroundImageFix"/><feBlend in="SourceGraphic" in2="BackgroundImageFix" result="shape"/><feGaussianBlur result="effect1_foregroundBlur_28327_7581" stdDeviation=".15"/></filter><filter id="R" width="2.512" height="6.759" x="16.832" y="1.949" color-interpolation-filters="sRGB" filterUnits="userSpaceOnUse"><feFlood flood-opacity="0" result="BackgroundImageFix"/><feBlend in="SourceGraphic" in2="BackgroundImageFix" result="shape"/><feGaussianBlur result="effect1_foregroundBlur_28327_7581" stdDeviation=".3"/></filter><filter id="T" width="4.263" height="4.075" x="10.556" y="6.353" color-interpolation-filters="sRGB" filterUnits="userSpaceOnUse"><feFlood flood-opacity="0" result="BackgroundImageFix"/><feBlend in="SourceGraphic" in2="BackgroundImageFix" result="shape"/><feGaussianBlur result="effect1_foregroundBlur_28327_7581" stdDeviation=".2"/></filter><filter id="V" width="4.263" height="4.075" x="9.156" y="11.354" color-interpolation-filters="sRGB" filterUnits="userSpaceOnUse"><feFlood flood-opacity="0" result="BackgroundImageFix"/><feBlend in="SourceGraphic" in2="BackgroundImageFix" result="shape"/><feGaussianBlur result="effect1_foregroundBlur_28327_7581" stdDeviation=".2"/></filter></defs><g transform="translate(-3500)"><circle cx="3680" cy="180" r="170" style="opacity:1;fill:url(#b);stroke:#fff;stroke-width:20;stroke-linecap:round;stroke-linejoin:round;stroke-dasharray:none;stroke-opacity:1;paint-order:stroke markers fill"/><g fill="none" style="stroke-width:.11867"><path fill="#497426" d="M16.008 19.236c-.25 0-.45-.2-.45-.45v-1.795a.15.15 0 0 0-.107-.144l-4.15-1.243a.15.15 0 0 1-.1-.187l.174-.582a.15.15 0 0 1 .186-.1l3.803 1.139a.15.15 0 0 0 .193-.144v-.074c0-1 .28-1.99.84-2.83q.207-.311.354-.649a.146.146 0 0 0-.094-.197L11.9 10.554a.15.15 0 0 1-.1-.187l.174-.582a.15.15 0 0 1 .187-.1l4.725 1.417a.146.146 0 0 0 .188-.12q.033-.266.033-.536v-1.95a.15.15 0 0 1 .15-.15h.6a.15.15 0 0 1 .15.15v1.95l-.002.13a.155.155 0 0 0 .197.154l3.53-1.056a.15.15 0 0 1 .187.101l.174.583a.15.15 0 0 1-.1.186l-4.08 1.22a.15.15 0 0 0-.102.105 5.1 5.1 0 0 1-.655 1.427c-.46.7-.7 1.52-.7 2.36v.791c0 .1.097.173.194.144l3.793-1.137a.15.15 0 0 1 .186.101l.175.582a.15.15 0 0 1-.101.187l-4.14 1.24a.15.15 0 0 0-.107.144v1.078c0 .25-.2.45-.45.45" style="stroke-width:.11867" transform="matrix(8.38184 0 0 8.47183 3549.327 40.877)"/><path fill="#497426" d="M16.008 19.236c-.25 0-.45-.2-.45-.45v-3.13c0-1 .28-1.99.84-2.83.47-.71.71-1.53.71-2.38v-2.1h.9v2.1c0 1.02-.29 2-.85 2.85-.46.7-.7 1.52-.7 2.36v3.13c0 .25-.2.45-.45.45" style="stroke-width:.11867" transform="matrix(8.38184 0 0 8.47183 3549.327 40.877)"/><path fill="url(#c)" d="M16.008 19.236c-.25 0-.45-.2-.45-.45v-3.13c0-1 .28-1.99.84-2.83.47-.71.71-1.53.71-2.38v-2.1h.9v2.1c0 1.02-.29 2-.85 2.85-.46.7-.7 1.52-.7 2.36v3.13c0 .25-.2.45-.45.45" style="fill:url(#c);stroke-width:.11867" transform="matrix(8.38184 0 0 8.47183 3549.327 40.877)"/><path stroke="#497426" stroke-miterlimit="10" stroke-width=".108" d="m11.288 15.126 4.84 1.45" transform="matrix(8.38184 0 0 8.47183 3549.327 40.877)"/><path stroke="url(#d)" stroke-miterlimit="10" stroke-width=".108" d="m11.288 15.126 4.84 1.45" style="stroke:url(#d)" transform="matrix(8.38184 0 0 8.47183 3549.327 40.877)"/><path stroke="#497426" stroke-miterlimit="10" stroke-width=".108" d="m11.888 10.076 5.27 1.58" transform="matrix(8.38184 0 0 8.47183 3549.327 40.877)"/><path stroke="url(#e)" stroke-miterlimit="10" stroke-width=".108" d="m11.888 10.076 5.27 1.58" style="stroke:url(#e)" transform="matrix(8.38184 0 0 8.47183 3549.327 40.877)"/><path stroke="#497426" stroke-miterlimit="10" stroke-width=".108" d="m20.717 15.846-4.84 1.45" transform="matrix(8.38184 0 0 8.47183 3549.327 40.877)"/><path stroke="url(#f)" stroke-miterlimit="10" stroke-width=".108" d="m20.717 15.846-4.84 1.45" style="stroke:url(#f)" transform="matrix(8.38184 0 0 8.47183 3549.327 40.877)"/><path stroke="url(#g)" stroke-miterlimit="10" stroke-width=".108" d="m20.717 15.846-4.84 1.45" style="stroke:url(#g)" transform="matrix(8.38184 0 0 8.47183 3549.327 40.877)"/><path stroke="#497426" stroke-miterlimit="10" stroke-width=".108" d="m22.007 10.066-4.75 1.42" transform="matrix(8.38184 0 0 8.47183 3549.327 40.877)"/><path stroke="url(#h)" stroke-miterlimit="10" stroke-width=".108" d="m22.007 10.066-4.75 1.42" style="stroke:url(#h)" transform="matrix(8.38184 0 0 8.47183 3549.327 40.877)"/><path stroke="url(#i)" stroke-miterlimit="10" stroke-width=".108" d="m22.007 10.066-4.75 1.42" style="stroke:url(#i)" transform="matrix(8.38184 0 0 8.47183 3549.327 40.877)"/><g filter="url(#j)" style="stroke-width:.11867" transform="matrix(8.38184 0 0 8.47183 3549.327 40.877)"><path stroke="url(#k)" stroke-linecap="round" stroke-width=".03" d="m14.602 10.766 2.71.812" style="stroke:url(#k)"/></g><g filter="url(#l)" style="stroke-width:.11867" transform="matrix(8.38184 0 0 8.47183 3549.327 40.877)"><path stroke="url(#m)" stroke-linecap="round" stroke-width=".03" d="m13.184 15.594 2.711.812" style="stroke:url(#m)"/></g><g filter="url(#n)" style="stroke-width:.11867" transform="matrix(8.38184 0 0 8.47183 3549.327 40.877)"><path stroke="url(#o)" stroke-linecap="round" stroke-width=".03" d="m18.513 16.484-2.711.812" style="stroke:url(#o)"/></g><g filter="url(#p)" style="stroke-width:.11867" transform="matrix(8.38184 0 0 8.47183 3549.327 40.877)"><path stroke="url(#q)" stroke-linecap="round" stroke-width=".03" d="m19.868 10.624-2.71.812" style="stroke:url(#q)"/></g><g filter="url(#r)" style="stroke-width:.11867" transform="matrix(8.38184 0 0 8.47183 3549.327 40.877)"><path stroke="url(#s)" stroke-linecap="round" stroke-width=".03" d="M17.558 8.986v1.662a4 4 0 0 1-.43 1.802l-.572 1.134a5 5 0 0 0-.536 2.252v2.556" style="stroke:url(#s)"/></g><path fill="url(#t)" d="M21.738 19.996a9.25 9.25 0 0 0-5.73-2c-2.15 0-4.14.75-5.73 2z" style="fill:url(#t);stroke-width:.11867" transform="matrix(8.38184 0 0 8.47183 3549.327 40.877)"/><path fill="url(#u)" d="M17.458 2.066a5.104 5.104 0 0 0-.13 7.22c.09.09.24.1.33.01a5.104 5.104 0 0 0 .13-7.22c-.09-.1-.24-.1-.33-.01" style="fill:url(#u);stroke-width:.11867" transform="matrix(8.38184 0 0 8.47183 3549.327 40.877)"/><g filter="url(#v)" style="stroke-width:.11867" transform="matrix(8.38184 0 0 8.47183 3549.327 40.877)"><path fill="url(#w)" d="M17.488 2.721c-1.402 1.605-1.443 4.25-.09 5.911.063.074.166.082.229.009 1.402-1.605 1.443-4.25.09-5.912-.063-.081-.166-.081-.229-.008" style="fill:url(#w);stroke-width:.11867"/></g><g filter="url(#x)" style="stroke-width:.11867" transform="matrix(8.38184 0 0 8.47183 3549.327 40.877)"><path fill="#7aad33" d="m10.658 11.526-3.261-.978a.24.24 0 0 0-.303.17 3.737 3.737 0 0 0 2.553 4.398l3.262.979a.24.24 0 0 0 .303-.17 3.716 3.716 0 0 0-2.554-4.399" style="stroke-width:.11867"/><path fill="url(#y)" d="m10.658 11.526-3.261-.978a.24.24 0 0 0-.303.17 3.737 3.737 0 0 0 2.553 4.398l3.262.979a.24.24 0 0 0 .303-.17 3.716 3.716 0 0 0-2.554-4.399" style="fill:url(#y);stroke-width:.11867"/></g><g filter="url(#z)" style="stroke-width:.11867" transform="matrix(8.38184 0 0 8.47183 3549.327 40.877)"><path fill="#7aad33" d="m12.128 6.736-3.26-.978a.24.24 0 0 0-.304.172 3.74 3.74 0 0 0 2.563 4.396l3.26.978a.24.24 0 0 0 .304-.17 3.73 3.73 0 0 0-2.564-4.398" style="stroke-width:.11867"/><path fill="url(#A)" d="m12.128 6.736-3.26-.978a.24.24 0 0 0-.304.172 3.74 3.74 0 0 0 2.563 4.396l3.26.978a.24.24 0 0 0 .304-.17 3.73 3.73 0 0 0-2.564-4.398" style="fill:url(#A);stroke-width:.11867"/></g><g filter="url(#B)" style="stroke-width:.11867" transform="matrix(8.38184 0 0 8.47183 3549.327 40.877)"><path fill="#7aad33" d="m20.538 12.486 3.26-.978a.24.24 0 0 1 .303.17 3.737 3.737 0 0 1-2.553 4.398l-3.262.979a.24.24 0 0 1-.303-.17 3.72 3.72 0 0 1 2.555-4.399" style="stroke-width:.11867"/><path fill="url(#C)" d="m20.538 12.486 3.26-.978a.24.24 0 0 1 .303.17 3.737 3.737 0 0 1-2.553 4.398l-3.262.979a.24.24 0 0 1-.303-.17 3.72 3.72 0 0 1 2.555-4.399" style="fill:url(#C);stroke-width:.11867"/><path fill="url(#D)" d="m20.538 12.486 3.26-.978a.24.24 0 0 1 .303.17 3.737 3.737 0 0 1-2.553 4.398l-3.262.979a.24.24 0 0 1-.303-.17 3.72 3.72 0 0 1 2.555-4.399" style="fill:url(#D);stroke-width:.11867"/></g><g filter="url(#E)" style="stroke-width:.11867" transform="matrix(8.38184 0 0 8.47183 3549.327 40.877)"><path fill="#7aad33" d="m21.358 6.846 3.26-.978a.24.24 0 0 1 .303.17 3.737 3.737 0 0 1-2.553 4.398l-3.262.979a.24.24 0 0 1-.303-.17 3.71 3.71 0 0 1 2.555-4.399" style="stroke-width:.11867"/><path fill="url(#F)" d="m21.358 6.846 3.26-.978a.24.24 0 0 1 .303.17 3.737 3.737 0 0 1-2.553 4.398l-3.262.979a.24.24 0 0 1-.303-.17 3.71 3.71 0 0 1 2.555-4.399" style="fill:url(#F);stroke-width:.11867"/><path fill="url(#G)" d="m21.358 6.846 3.26-.978a.24.24 0 0 1 .303.17 3.737 3.737 0 0 1-2.553 4.398l-3.262.979a.24.24 0 0 1-.303-.17 3.71 3.71 0 0 1 2.555-4.399" style="fill:url(#G);stroke-width:.11867"/></g><path fill="url(#H)" d="m9.007 23.996.78 4.69c.13.76.78 1.31 1.54 1.31h9.35c.76 0 1.42-.55 1.54-1.31l.79-4.69z" style="fill:url(#H);stroke-width:.11867" transform="matrix(8.38184 0 0 8.47183 3549.327 40.877)"/><path fill="url(#I)" d="m9.007 23.996.78 4.69c.13.76.78 1.31 1.54 1.31h9.35c.76 0 1.42-.55 1.54-1.31l.79-4.69z" style="fill:url(#I);stroke-width:.11867" transform="matrix(8.38184 0 0 8.47183 3549.327 40.877)"/><path fill="url(#J)" d="m9.007 23.996.78 4.69c.13.76.78 1.31 1.54 1.31h9.35c.76 0 1.42-.55 1.54-1.31l.79-4.69z" style="fill:url(#J);stroke-width:.11867" transform="matrix(8.38184 0 0 8.47183 3549.327 40.877)"/><path fill="url(#K)" d="m9.007 23.996.78 4.69c.13.76.78 1.31 1.54 1.31h9.35c.76 0 1.42-.55 1.54-1.31l.79-4.69z" style="fill:url(#K);stroke-width:.11867" transform="matrix(8.38184 0 0 8.47183 3549.327 40.877)"/><path fill="url(#L)" d="M23.507 23.996h-15c-.28 0-.5-.22-.5-.5v-3c0-.28.22-.5.5-.5h15c.28 0 .5.22.5.5v3c0 .28-.22.5-.5.5" style="fill:url(#L);stroke-width:.11867" transform="matrix(8.38184 0 0 8.47183 3549.327 40.877)"/><path fill="url(#M)" d="M23.507 23.996h-15c-.28 0-.5-.22-.5-.5v-3c0-.28.22-.5.5-.5h15c.28 0 .5.22.5.5v3c0 .28-.22.5-.5.5" style="fill:url(#M);stroke-width:.11867" transform="matrix(8.38184 0 0 8.47183 3549.327 40.877)"/><path fill="url(#N)" d="M23.507 23.996h-15c-.28 0-.5-.22-.5-.5v-3c0-.28.22-.5.5-.5h15c.28 0 .5.22.5.5v3c0 .28-.22.5-.5.5" style="fill:url(#N);stroke-width:.11867" transform="matrix(8.38184 0 0 8.47183 3549.327 40.877)"/><path fill="url(#O)" d="M23.507 23.996h-15c-.28 0-.5-.22-.5-.5v-3c0-.28.22-.5.5-.5h15c.28 0 .5.22.5.5v3c0 .28-.22.5-.5.5" style="fill:url(#O);stroke-width:.11867" transform="matrix(8.38184 0 0 8.47183 3549.327 40.877)"/><g filter="url(#P)" style="stroke-width:.11867" transform="matrix(8.38184 0 0 8.47183 3549.327 40.877)"><path stroke="url(#Q)" stroke-linecap="round" stroke-width=".047" d="M11.052 20.472h12.41" style="stroke:url(#Q)"/></g><g filter="url(#R)" style="stroke-width:.11867" transform="matrix(8.38184 0 0 8.47183 3549.327 40.877)"><path stroke="url(#S)" stroke-linecap="round" stroke-width=".059" d="M17.682 2.799c.475.81 1.245 2.585.504 5.059" style="stroke:url(#S)"/></g><g filter="url(#T)" style="stroke-width:.11867" transform="matrix(8.38184 0 0 8.47183 3549.327 40.877)"><path stroke="url(#U)" stroke-linecap="round" stroke-width=".047" d="m11.156 6.953 1.106.376c.272.093.539.21.76.394.492.411 1.118 1.156 1.197 2.105" style="stroke:url(#U)"/></g><g filter="url(#V)" style="stroke-width:.11867" transform="matrix(8.38184 0 0 8.47183 3549.327 40.877)"><path stroke="url(#W)" stroke-linecap="round" stroke-width=".047" d="m9.756 11.954 1.106.376c.272.093.539.209.76.393.492.412 1.118 1.157 1.197 2.106" style="stroke:url(#W)"/></g></g></g></svg>